<mxfile host="65bd71144e" modified="2020-12-07T04:13:56.710Z" agent="5.0 (Windows NT 10.0; Win64; x64) AppleWebKit/537.36 (KHTML, like Gecko) Code/1.51.1 Chrome/83.0.4103.122 Electron/9.3.3 Safari/537.36" version="13.10.0" etag="KPMN4LvgXJ5XASF69Epk" type="embed">
    <diagram id="3gRXEbeZebtQ5nvocdyO" name="Page-1">
        <mxGraphModel dx="1155" dy="1015" grid="1" gridSize="10" guides="1" tooltips="1" connect="1" arrows="1" fold="1" page="0" pageScale="1" pageWidth="827" pageHeight="1169" math="0" shadow="0">
            <root>
                <mxCell id="0"/>
                <mxCell id="1" parent="0"/>
                <mxCell id="2" value="Class&lt;br&gt;&lt;br&gt;&amp;nbsp; &amp;nbsp; Handle" style="html=1;align=left;verticalAlign=top;spacingLeft=4;spacingRight=4;" vertex="1" parent="1">
                    <mxGeometry x="1290" y="-212" width="240" height="62" as="geometry"/>
                </mxCell>
                <mxCell id="3" value="Responsibility&lt;br&gt;&lt;br&gt;&amp;nbsp; &amp;nbsp; * A handle identifies an operating&amp;nbsp;&lt;br&gt;system resource that can be the target of&amp;nbsp;&lt;br&gt;asynchronous operation invocations or a&amp;nbsp;&lt;br&gt;source of completion events in an&amp;nbsp;&lt;br&gt;operation system" style="html=1;align=left;verticalAlign=top;spacingLeft=4;spacingRight=4;" vertex="1" parent="1">
                    <mxGeometry x="1290" y="-150" width="240" height="118" as="geometry"/>
                </mxCell>
                <mxCell id="4" value="Collaborator" style="html=1;align=left;verticalAlign=top;spacingLeft=4;spacingRight=4;" vertex="1" parent="1">
                    <mxGeometry x="1530" y="-212" width="100" height="180" as="geometry"/>
                </mxCell>
                <mxCell id="5" value="Initiator" style="rounded=0;whiteSpace=wrap;html=1;" vertex="1" parent="1">
                    <mxGeometry x="360" y="-230" width="250" height="30" as="geometry"/>
                </mxCell>
                <mxCell id="14" value="Asynchronous Operation Processor" style="swimlane;fontStyle=0;childLayout=stackLayout;horizontal=1;startSize=26;fillColor=none;horizontalStack=0;resizeParent=1;resizeParentMax=0;resizeLast=0;collapsible=1;marginBottom=0;" vertex="1" parent="1">
                    <mxGeometry x="232" y="-148" width="230" height="52" as="geometry">
                        <mxRectangle x="90" y="200" width="70" height="26" as="alternateBounds"/>
                    </mxGeometry>
                </mxCell>
                <mxCell id="15" value="execute_async_operation()" style="text;strokeColor=none;fillColor=none;align=left;verticalAlign=top;spacingLeft=4;spacingRight=4;overflow=hidden;rotatable=0;points=[[0,0.5],[1,0.5]];portConstraint=eastwest;" vertex="1" parent="14">
                    <mxGeometry y="26" width="230" height="26" as="geometry"/>
                </mxCell>
                <mxCell id="18" value="Asynchronous Operation" style="swimlane;fontStyle=0;childLayout=stackLayout;horizontal=1;startSize=26;fillColor=none;horizontalStack=0;resizeParent=1;resizeParentMax=0;resizeLast=0;collapsible=1;marginBottom=0;" vertex="1" parent="1">
                    <mxGeometry x="500" y="-148" width="190" height="52" as="geometry">
                        <mxRectangle x="90" y="200" width="70" height="26" as="alternateBounds"/>
                    </mxGeometry>
                </mxCell>
                <mxCell id="19" value="async_operation()" style="text;strokeColor=none;fillColor=none;align=left;verticalAlign=top;spacingLeft=4;spacingRight=4;overflow=hidden;rotatable=0;points=[[0,0.5],[1,0.5]];portConstraint=eastwest;" vertex="1" parent="18">
                    <mxGeometry y="26" width="190" height="26" as="geometry"/>
                </mxCell>
                <mxCell id="21" value="uses" style="endArrow=open;endSize=12;dashed=1;html=1;exitX=0.25;exitY=1;exitDx=0;exitDy=0;entryX=0.75;entryY=0;entryDx=0;entryDy=0;" edge="1" parent="1">
                    <mxGeometry width="160" relative="1" as="geometry">
                        <mxPoint x="398.5" y="-200" as="sourcePoint"/>
                        <mxPoint x="398.5" y="-148" as="targetPoint"/>
                    </mxGeometry>
                </mxCell>
                <mxCell id="23" value="invokes" style="endArrow=open;endSize=12;dashed=1;html=1;exitX=0.25;exitY=1;exitDx=0;exitDy=0;entryX=0.75;entryY=0;entryDx=0;entryDy=0;" edge="1" parent="1">
                    <mxGeometry width="160" relative="1" as="geometry">
                        <mxPoint x="565.5" y="-200" as="sourcePoint"/>
                        <mxPoint x="565.5" y="-148" as="targetPoint"/>
                    </mxGeometry>
                </mxCell>
                <mxCell id="24" value="executes" style="endArrow=open;endSize=12;dashed=1;html=1;entryX=0.283;entryY=1.031;entryDx=0;entryDy=0;entryPerimeter=0;" edge="1" parent="1" target="19">
                    <mxGeometry width="160" relative="1" as="geometry">
                        <mxPoint x="380" y="-96" as="sourcePoint"/>
                        <mxPoint x="380" y="-6" as="targetPoint"/>
                        <Array as="points">
                            <mxPoint x="380" y="-60"/>
                            <mxPoint x="554" y="-60"/>
                        </Array>
                    </mxGeometry>
                </mxCell>
                <mxCell id="25" value="Completion Event Queue" style="rounded=0;whiteSpace=wrap;html=1;" vertex="1" parent="1">
                    <mxGeometry x="232" y="-14" width="150" height="30" as="geometry"/>
                </mxCell>
                <mxCell id="26" value="enqueues" style="endArrow=open;endSize=12;dashed=1;html=1;" edge="1" parent="1">
                    <mxGeometry width="160" relative="1" as="geometry">
                        <mxPoint x="280" y="-95" as="sourcePoint"/>
                        <mxPoint x="280" y="-14" as="targetPoint"/>
                    </mxGeometry>
                </mxCell>
                <mxCell id="27" value="uses" style="endArrow=open;endSize=12;dashed=1;html=1;exitX=0;exitY=0.5;exitDx=0;exitDy=0;entryX=0.25;entryY=1;entryDx=0;entryDy=0;" edge="1" parent="1" source="5" target="25">
                    <mxGeometry width="160" relative="1" as="geometry">
                        <mxPoint x="150" y="-270" as="sourcePoint"/>
                        <mxPoint x="150" y="-180" as="targetPoint"/>
                        <Array as="points">
                            <mxPoint x="180" y="-215"/>
                            <mxPoint x="180" y="60"/>
                            <mxPoint x="270" y="60"/>
                            <mxPoint x="270" y="50"/>
                        </Array>
                    </mxGeometry>
                </mxCell>
                <mxCell id="28" value="Asynchronous Event Demuxer" style="swimlane;fontStyle=0;childLayout=stackLayout;horizontal=1;startSize=26;fillColor=none;horizontalStack=0;resizeParent=1;resizeParentMax=0;resizeLast=0;collapsible=1;marginBottom=0;" vertex="1" parent="1">
                    <mxGeometry x="421" y="21" width="200" height="52" as="geometry">
                        <mxRectangle x="90" y="200" width="70" height="26" as="alternateBounds"/>
                    </mxGeometry>
                </mxCell>
                <mxCell id="29" value="get_completion_event()" style="text;strokeColor=none;fillColor=none;align=left;verticalAlign=top;spacingLeft=4;spacingRight=4;overflow=hidden;rotatable=0;points=[[0,0.5],[1,0.5]];portConstraint=eastwest;" vertex="1" parent="28">
                    <mxGeometry y="26" width="200" height="26" as="geometry"/>
                </mxCell>
                <mxCell id="30" value="dequeues" style="endArrow=open;endSize=12;dashed=1;html=1;exitX=0;exitY=0.5;exitDx=0;exitDy=0;entryX=0.75;entryY=1;entryDx=0;entryDy=0;" edge="1" parent="1" source="29" target="25">
                    <mxGeometry x="-0.3167" width="160" relative="1" as="geometry">
                        <mxPoint x="380" y="30" as="sourcePoint"/>
                        <mxPoint x="380" y="120" as="targetPoint"/>
                        <Array as="points">
                            <mxPoint x="345" y="60"/>
                            <mxPoint x="345" y="40"/>
                            <mxPoint x="345" y="30"/>
                        </Array>
                        <mxPoint as="offset"/>
                    </mxGeometry>
                </mxCell>
                <mxCell id="31" value="Handle" style="html=1;" vertex="1" parent="1">
                    <mxGeometry x="730" y="-150" width="90" height="30" as="geometry"/>
                </mxCell>
                <mxCell id="34" value="" style="endArrow=none;html=1;edgeStyle=orthogonalEdgeStyle;entryX=0;entryY=0.5;entryDx=0;entryDy=0;" edge="1" parent="1" target="31">
                    <mxGeometry relative="1" as="geometry">
                        <mxPoint x="690" y="-135" as="sourcePoint"/>
                        <mxPoint x="580" y="-20" as="targetPoint"/>
                    </mxGeometry>
                </mxCell>
                <mxCell id="39" value="Completion Handler" style="swimlane;fontStyle=0;childLayout=stackLayout;horizontal=1;startSize=26;fillColor=none;horizontalStack=0;resizeParent=1;resizeParentMax=0;resizeLast=0;collapsible=1;marginBottom=0;" vertex="1" parent="1">
                    <mxGeometry x="860" y="-148" width="150" height="52" as="geometry">
                        <mxRectangle x="90" y="200" width="70" height="26" as="alternateBounds"/>
                    </mxGeometry>
                </mxCell>
                <mxCell id="40" value="handle_event()" style="text;strokeColor=none;fillColor=none;align=left;verticalAlign=top;spacingLeft=4;spacingRight=4;overflow=hidden;rotatable=0;points=[[0,0.5],[1,0.5]];portConstraint=eastwest;" vertex="1" parent="39">
                    <mxGeometry y="26" width="150" height="26" as="geometry"/>
                </mxCell>
                <mxCell id="41" value="" style="endArrow=none;html=1;edgeStyle=orthogonalEdgeStyle;entryX=0;entryY=0.25;entryDx=0;entryDy=0;exitX=1;exitY=0.5;exitDx=0;exitDy=0;" edge="1" parent="1" source="31" target="39">
                    <mxGeometry relative="1" as="geometry">
                        <mxPoint x="830" y="-135" as="sourcePoint"/>
                        <mxPoint x="750" y="-125" as="targetPoint"/>
                    </mxGeometry>
                </mxCell>
                <mxCell id="42" value="Concrete Completion Handler" style="html=1;" vertex="1" parent="1">
                    <mxGeometry x="850" y="-43" width="170" height="30" as="geometry"/>
                </mxCell>
                <mxCell id="43" value="Proactor" style="swimlane;fontStyle=0;childLayout=stackLayout;horizontal=1;startSize=26;fillColor=none;horizontalStack=0;resizeParent=1;resizeParentMax=0;resizeLast=0;collapsible=1;marginBottom=0;" vertex="1" parent="1">
                    <mxGeometry x="660" y="21" width="150" height="52" as="geometry">
                        <mxRectangle x="90" y="200" width="70" height="26" as="alternateBounds"/>
                    </mxGeometry>
                </mxCell>
                <mxCell id="44" value="handle_event()" style="text;strokeColor=none;fillColor=none;align=left;verticalAlign=top;spacingLeft=4;spacingRight=4;overflow=hidden;rotatable=0;points=[[0,0.5],[1,0.5]];portConstraint=eastwest;" vertex="1" parent="43">
                    <mxGeometry y="26" width="150" height="26" as="geometry"/>
                </mxCell>
                <mxCell id="45" value="" style="endArrow=none;html=1;edgeStyle=orthogonalEdgeStyle;exitX=1;exitY=0.25;exitDx=0;exitDy=0;" edge="1" parent="1" source="28">
                    <mxGeometry relative="1" as="geometry">
                        <mxPoint x="700" y="-125" as="sourcePoint"/>
                        <mxPoint x="660" y="34" as="targetPoint"/>
                    </mxGeometry>
                </mxCell>
                <mxCell id="47" value="is associated with" style="text;html=1;strokeColor=none;fillColor=none;align=center;verticalAlign=middle;whiteSpace=wrap;rounded=0;" vertex="1" parent="1">
                    <mxGeometry x="721" y="-175" width="106" height="20" as="geometry"/>
                </mxCell>
                <mxCell id="48" value="demultiplexes &amp;amp; dispatches" style="endArrow=open;endSize=12;dashed=1;html=1;entryX=0;entryY=0.5;entryDx=0;entryDy=0;exitX=0.5;exitY=0;exitDx=0;exitDy=0;" edge="1" parent="1" source="43" target="40">
                    <mxGeometry x="-0.2534" width="160" relative="1" as="geometry">
                        <mxPoint x="734.5" y="-80" as="sourcePoint"/>
                        <mxPoint x="860" y="-123" as="targetPoint"/>
                        <Array as="points">
                            <mxPoint x="735" y="-109"/>
                        </Array>
                        <mxPoint as="offset"/>
                    </mxGeometry>
                </mxCell>
                <mxCell id="50" value="" style="endArrow=block;endSize=16;endFill=0;html=1;exitX=0.5;exitY=0;exitDx=0;exitDy=0;" edge="1" parent="1" source="42" target="40">
                    <mxGeometry x="-0.3585" y="-45" width="160" relative="1" as="geometry">
                        <mxPoint x="920" y="60" as="sourcePoint"/>
                        <mxPoint x="1080" y="60" as="targetPoint"/>
                        <mxPoint as="offset"/>
                    </mxGeometry>
                </mxCell>
                <mxCell id="51" value="uses" style="endArrow=open;endSize=12;dashed=1;html=1;exitX=1;exitY=0.5;exitDx=0;exitDy=0;entryX=0.5;entryY=0;entryDx=0;entryDy=0;" edge="1" parent="1" source="5" target="39">
                    <mxGeometry width="160" relative="1" as="geometry">
                        <mxPoint x="150" y="-270" as="sourcePoint"/>
                        <mxPoint x="150" y="-180" as="targetPoint"/>
                        <Array as="points">
                            <mxPoint x="935" y="-215"/>
                        </Array>
                    </mxGeometry>
                </mxCell>
                <mxCell id="52" value="Class&lt;br&gt;&lt;br&gt;&amp;nbsp; &amp;nbsp; Asynchronous Operation" style="html=1;align=left;verticalAlign=top;spacingLeft=4;spacingRight=4;" vertex="1" parent="1">
                    <mxGeometry x="1700" y="-212" width="240" height="62" as="geometry"/>
                </mxCell>
                <mxCell id="53" value="Responsibility&lt;br&gt;&lt;br&gt;&amp;nbsp; &amp;nbsp; * Defines an operation that can be&amp;nbsp;&lt;br&gt;executed asynchronously&lt;br&gt;&lt;br&gt;&amp;nbsp; &amp;nbsp; * Used to implement a service" style="html=1;align=left;verticalAlign=top;spacingLeft=4;spacingRight=4;" vertex="1" parent="1">
                    <mxGeometry x="1700" y="-150" width="240" height="118" as="geometry"/>
                </mxCell>
                <mxCell id="54" value="Collaborator&lt;br&gt;&lt;br&gt;&amp;nbsp; &amp;nbsp; * Handle&lt;br&gt;&lt;br&gt;&amp;nbsp; &amp;nbsp; * Asynchronous&amp;nbsp;&lt;br&gt;Operation Processor" style="html=1;align=left;verticalAlign=top;spacingLeft=4;spacingRight=4;" vertex="1" parent="1">
                    <mxGeometry x="1940" y="-212" width="120" height="180" as="geometry"/>
                </mxCell>
                <mxCell id="55" value="Class&lt;br&gt;&lt;br&gt;&amp;nbsp; &amp;nbsp; Completion Handler" style="html=1;align=left;verticalAlign=top;spacingLeft=4;spacingRight=4;" vertex="1" parent="1">
                    <mxGeometry x="1290" y="40" width="240" height="62" as="geometry"/>
                </mxCell>
                <mxCell id="56" value="Responsibility&lt;br&gt;&lt;br&gt;&amp;nbsp; &amp;nbsp; * Defines an interface for processing&amp;nbsp;&lt;br&gt;results of asynchronous operations" style="html=1;align=left;verticalAlign=top;spacingLeft=4;spacingRight=4;" vertex="1" parent="1">
                    <mxGeometry x="1290" y="102" width="240" height="118" as="geometry"/>
                </mxCell>
                <mxCell id="57" value="Collaborator" style="html=1;align=left;verticalAlign=top;spacingLeft=4;spacingRight=4;" vertex="1" parent="1">
                    <mxGeometry x="1530" y="40" width="100" height="180" as="geometry"/>
                </mxCell>
                <mxCell id="58" value="Class&lt;br&gt;&lt;br&gt;&amp;nbsp; &amp;nbsp; Concrete Completion Handler" style="html=1;align=left;verticalAlign=top;spacingLeft=4;spacingRight=4;" vertex="1" parent="1">
                    <mxGeometry x="1700" y="40" width="240" height="62" as="geometry"/>
                </mxCell>
                <mxCell id="59" value="Responsibility&lt;br&gt;&lt;br&gt;&amp;nbsp; &amp;nbsp; * Processes results of asynchronous&amp;nbsp;&lt;br&gt;operations in an application-specific &lt;br&gt;manner" style="html=1;align=left;verticalAlign=top;spacingLeft=4;spacingRight=4;" vertex="1" parent="1">
                    <mxGeometry x="1700" y="102" width="240" height="118" as="geometry"/>
                </mxCell>
                <mxCell id="60" value="Collaborator&lt;br&gt;&lt;br&gt;&amp;nbsp; &amp;nbsp; * Handle" style="html=1;align=left;verticalAlign=top;spacingLeft=4;spacingRight=4;" vertex="1" parent="1">
                    <mxGeometry x="1940" y="40" width="100" height="180" as="geometry"/>
                </mxCell>
                <mxCell id="61" value="Class&lt;br&gt;&lt;br&gt;&amp;nbsp; &amp;nbsp; Asynchronous Operation Processor" style="html=1;align=left;verticalAlign=top;spacingLeft=4;spacingRight=4;" vertex="1" parent="1">
                    <mxGeometry x="1290" y="290" width="240" height="62" as="geometry"/>
                </mxCell>
                <mxCell id="62" value="Responsibility&lt;br&gt;&lt;br&gt;&amp;nbsp; &amp;nbsp; *&amp;nbsp;" style="html=1;align=left;verticalAlign=top;spacingLeft=4;spacingRight=4;" vertex="1" parent="1">
                    <mxGeometry x="1290" y="352" width="240" height="118" as="geometry"/>
                </mxCell>
                <mxCell id="63" value="Collaborator" style="html=1;align=left;verticalAlign=top;spacingLeft=4;spacingRight=4;" vertex="1" parent="1">
                    <mxGeometry x="1530" y="290" width="100" height="180" as="geometry"/>
                </mxCell>
            </root>
        </mxGraphModel>
    </diagram>
</mxfile>